<svg width="24" height="28" viewBox="0 0 24 28" fill="none" xmlns="http://www.w3.org/2000/svg">
    <path fill-rule="evenodd" clip-rule="evenodd" d="M14.0923 10.0818C14.9299 9.66412 15.9956 9.04932 17.0627 8.207C17.2877 8.67421 17.3123 9.08191 17.1964 9.41112C17.1142 9.64313 16.9594 9.84492 16.7559 10.0055C16.5355 10.179 16.2602 10.3053 15.9559 10.3736C15.3786 10.5036 14.7044 10.4277 14.0923 10.0818ZM14.2375 14.361L15.3463 15.0015C13.0824 16.2703 12.467 18.6264 11.7359 20.9212C11.0049 18.6264 10.3894 16.2703 8.12562 15.0015L9.23437 14.361C9.4544 14.2779 9.59588 14.0625 9.58484 13.8276C9.48326 11.6784 10.0636 10.7281 10.8463 10.1313C11.127 9.91757 11.4335 9.81024 11.7359 9.81024C12.0383 9.81024 12.3448 9.91757 12.6256 10.1313C13.4083 10.7281 13.9886 11.6784 13.887 13.8276C13.876 14.0625 14.0175 14.2779 14.2375 14.361ZM11.7359 0.328125C13.0175 0.362534 14.3023 0.611335 15.4174 1.09534C16.1895 1.43094 16.91 1.87424 17.5624 2.40433C17.857 2.64364 18.0996 2.87483 18.3668 3.14097C19.0876 3.16589 20.1409 2.36518 20.63 1.61594C19.7884 4.37503 15.9479 7.63327 13.2891 8.88002C13.288 8.87956 13.2873 8.87892 13.2865 8.87838C12.8093 8.51403 12.2726 8.33185 11.7359 8.33185C11.1991 8.33185 10.6626 8.51403 10.1854 8.87838C10.1846 8.87883 10.1838 8.87965 10.1828 8.88002C7.52388 7.63327 3.68352 4.37503 2.84192 1.61594C3.33085 2.36518 4.3842 3.16589 5.10495 3.14097C5.37228 2.87492 5.61488 2.64364 5.90941 2.40433C6.5618 1.87424 7.28229 1.43094 8.05443 1.09534C9.16957 0.611335 10.4544 0.362534 11.7359 0.328125ZM9.37949 10.0818C8.54199 9.66412 7.47615 9.04932 6.4092 8.207C6.18422 8.67421 6.15958 9.08191 6.2754 9.41112C6.35763 9.64313 6.51243 9.84492 6.71587 10.0055C6.93638 10.179 7.21165 10.3053 7.51594 10.3736C8.09331 10.5036 8.76734 10.4277 9.37949 10.0818Z" fill="white"/>
    <path fill-rule="evenodd" clip-rule="evenodd" d="M18.2305 7.17428C18.8179 6.58148 19.3355 5.92534 19.7517 5.33984L19.9631 5.73769C20.6436 7.09916 20.9972 8.45516 20.9972 9.98119L20.9957 12.4028L21.0085 13.6581C21.0578 16.7399 21.7246 19.858 23.2351 22.7114L20.0747 20.163L17.8385 23.7918L15.4892 21.5802L11.7351 27.6724L7.981 21.5803L5.6318 23.7919L3.3956 20.1631L0.235107 22.7115C1.74562 19.858 2.41244 16.74 2.46182 13.6582L2.4746 12.4029L2.47314 9.98128C2.47314 8.45516 2.82662 7.09916 3.50731 5.73778L3.7186 5.33993C4.13479 5.92543 4.65229 6.58148 5.2398 7.17437L5.05635 7.55542C4.69994 8.29553 4.58192 9.12307 4.85957 9.91009C5.03855 10.417 5.3652 10.8517 5.78632 11.1836C6.19521 11.5059 6.67912 11.7231 7.18576 11.8372C7.51579 11.9115 7.85203 11.942 8.18608 11.9316C8.10814 12.3735 8.07409 12.8317 8.0719 13.2987L5.09066 15.0206L7.39121 16.3101C7.57509 16.4132 7.75013 16.5313 7.91455 16.6632C9.81123 18.3661 10.9516 23.404 11.7352 25.8647C12.5189 23.404 13.6592 18.3661 15.5559 16.6632C15.7203 16.5313 15.8954 16.4132 16.0793 16.3101L18.3798 15.0206L15.3985 13.2987C15.3963 12.8317 15.3623 12.3735 15.2843 11.9316C15.6184 11.942 15.9546 11.9115 16.2846 11.8372C16.7913 11.7231 17.2753 11.5059 17.6841 11.1836C18.1051 10.8517 18.4318 10.417 18.6107 9.91009C18.8885 9.12307 18.7704 8.29562 18.4141 7.55542L18.2306 7.17437L18.2305 7.17428Z" fill="white"/>
    </svg>
