<svg width="61" height="69" viewBox="0 0 61 69" fill="none"
    xmlns="http://www.w3.org/2000/svg">
    <g filter="url(#filter0_b_652_2467)">
        <rect y="0.5" width="59.4702" height="60" rx="4" fill="#7979FA" fill-opacity="0.26"/>
        <path fill-rule="evenodd" clip-rule="evenodd" d="M32.0923 26.5818C32.9299 26.1641 33.9956 25.5493 35.0627 24.707C35.2877 25.1742 35.3123 25.5819 35.1964 25.9111C35.1142 26.1431 34.9594 26.3449 34.7559 26.5055C34.5355 26.679 34.2602 26.8053 33.9559 26.8736C33.3786 27.0036 32.7044 26.9277 32.0923 26.5818ZM32.2375 30.861L33.3463 31.5015C31.0824 32.7703 30.467 35.1264 29.7359 37.4212C29.0049 35.1264 28.3894 32.7703 26.1256 31.5015L27.2344 30.861C27.4544 30.7779 27.5959 30.5625 27.5848 30.3276C27.4833 28.1784 28.0636 27.2281 28.8463 26.6313C29.127 26.4176 29.4335 26.3102 29.7359 26.3102C30.0383 26.3102 30.3448 26.4176 30.6256 26.6313C31.4083 27.2281 31.9886 28.1784 31.887 30.3276C31.876 30.5625 32.0175 30.7779 32.2375 30.861ZM29.7359 16.8281C31.0175 16.8625 32.3023 17.1113 33.4174 17.5953C34.1895 17.9309 34.91 18.3742 35.5624 18.9043C35.857 19.1436 36.0996 19.3748 36.3668 19.641C37.0876 19.6659 38.1409 18.8652 38.63 18.1159C37.7884 20.875 33.9479 24.1333 31.2891 25.38C31.288 25.3796 31.2873 25.3789 31.2865 25.3784C30.8093 25.014 30.2726 24.8319 29.7359 24.8319C29.1991 24.8319 28.6626 25.014 28.1854 25.3784C28.1846 25.3788 28.1838 25.3797 28.1828 25.38C25.5239 24.1333 21.6835 20.875 20.8419 18.1159C21.3309 18.8652 22.3842 19.6659 23.105 19.641C23.3723 19.3749 23.6149 19.1436 23.9094 18.9043C24.5618 18.3742 25.2823 17.9309 26.0544 17.5953C27.1696 17.1113 28.4544 16.8625 29.7359 16.8281ZM27.3795 26.5818C26.542 26.1641 25.4761 25.5493 24.4092 24.707C24.1842 25.1742 24.1596 25.5819 24.2754 25.9111C24.3576 26.1431 24.5124 26.3449 24.7159 26.5055C24.9364 26.679 25.2116 26.8053 25.5159 26.8736C26.0933 27.0036 26.7673 26.9277 27.3795 26.5818Z" fill="white"/>
        <path fill-rule="evenodd" clip-rule="evenodd" d="M36.2305 23.6743C36.8179 23.0815 37.3355 22.4253 37.7517 21.8398L37.9631 22.2377C38.6436 23.5992 38.9972 24.9552 38.9972 26.4812L38.9957 28.9028L39.0085 30.1581C39.0578 33.2399 39.7246 36.358 41.2351 39.2114L38.0747 36.663L35.8385 40.2918L33.4892 38.0802L29.7351 44.1724L25.981 38.0803L23.6318 40.2919L21.3956 36.6631L18.2351 39.2115C19.7456 36.358 20.4124 33.24 20.4618 30.1582L20.4746 28.9029L20.4731 26.4813C20.4731 24.9552 20.8266 23.5992 21.5073 22.2378L21.7186 21.8399C22.1348 22.4254 22.6523 23.0815 23.2398 23.6744L23.0563 24.0554C22.6999 24.7955 22.5819 25.6231 22.8596 26.4101C23.0385 26.917 23.3652 27.3517 23.7863 27.6836C24.1952 28.0059 24.6791 28.2231 25.1858 28.3372C25.5158 28.4115 25.852 28.442 26.1861 28.4316C26.1081 28.8735 26.0741 29.3317 26.0719 29.7987L23.0907 31.5206L25.3912 32.8101C25.5751 32.9132 25.7501 33.0313 25.9146 33.1632C27.8112 34.8661 28.9516 39.904 29.7352 42.3647C30.5189 39.904 31.6592 34.8661 33.5559 33.1632C33.7203 33.0313 33.8954 32.9132 34.0793 32.8101L36.3798 31.5206L33.3985 29.7987C33.3963 29.3317 33.3623 28.8735 33.2843 28.4316C33.6184 28.442 33.9546 28.4115 34.2846 28.3372C34.7913 28.2231 35.2753 28.0059 35.6841 27.6836C36.1051 27.3517 36.4318 26.917 36.6107 26.4101C36.8885 25.6231 36.7704 24.7956 36.4141 24.0554L36.2306 23.6744L36.2305 23.6743Z" fill="white"/>
    </g>
    <defs>
        <filter id="filter0_b_652_2467" x="-4.5" y="-4" width="68.4702" height="69" filterUnits="userSpaceOnUse" color-interpolation-filters="sRGB">
            <feFlood flood-opacity="0" result="BackgroundImageFix"/>
            <feGaussianBlur in="BackgroundImageFix" stdDeviation="2.25"/>
            <feComposite in2="SourceAlpha" operator="in" result="effect1_backgroundBlur_652_2467"/>
            <feBlend mode="normal" in="SourceGraphic" in2="effect1_backgroundBlur_652_2467" result="shape"/>
        </filter>
    </defs>
</svg>
